<svg width="127" height="37" viewBox="0 0 127 37" fill="none" xmlns="http://www.w3.org/2000/svg">
<path d="M30.2656 18.1875V19.7109C30.2656 22.3047 29.9062 24.6328 29.1875 26.6953C28.4844 28.7578 27.4766 30.5156 26.1641 31.9688C24.8672 33.4219 23.3203 34.5391 21.5234 35.3203C19.7422 36.0859 17.7656 36.4688 15.5938 36.4688C13.4219 36.4688 11.4375 36.0859 9.64062 35.3203C7.84375 34.5391 6.28125 33.4219 4.95312 31.9688C3.64062 30.5156 2.625 28.7578 1.90625 26.6953C1.1875 24.6328 0.828125 22.3047 0.828125 19.7109V18.1875C0.828125 15.5938 1.1875 13.2656 1.90625 11.2031C2.625 9.125 3.63281 7.35938 4.92969 5.90625C6.24219 4.45312 7.79688 3.34375 9.59375 2.57812C11.3906 1.79688 13.375 1.40625 15.5469 1.40625C17.7188 1.40625 19.7031 1.79688 21.5 2.57812C23.2969 3.34375 24.8438 4.45312 26.1406 5.90625C27.4531 7.35938 28.4688 9.125 29.1875 11.2031C29.9062 13.2656 30.2656 15.5938 30.2656 18.1875ZM22.5547 19.7109V18.1406C22.5547 16.4062 22.3984 14.875 22.0859 13.5469C21.7734 12.2031 21.3203 11.0781 20.7266 10.1719C20.1328 9.26562 19.3984 8.58594 18.5234 8.13281C17.6484 7.66406 16.6562 7.42969 15.5469 7.42969C14.3906 7.42969 13.3828 7.66406 12.5234 8.13281C11.6641 8.58594 10.9375 9.26562 10.3438 10.1719C9.76562 11.0781 9.32031 12.2031 9.00781 13.5469C8.71094 14.875 8.5625 16.4062 8.5625 18.1406V19.7109C8.5625 21.4297 8.71094 22.9609 9.00781 24.3047C9.32031 25.6328 9.77344 26.7578 10.3672 27.6797C10.9609 28.6016 11.6875 29.2969 12.5469 29.7656C13.4219 30.2344 14.4375 30.4688 15.5938 30.4688C16.7031 30.4688 17.6875 30.2344 18.5469 29.7656C19.4219 29.2969 20.1562 28.6016 20.75 27.6797C21.3438 26.7578 21.7891 25.6328 22.0859 24.3047C22.3984 22.9609 22.5547 21.4297 22.5547 19.7109ZM41.7266 0V36H34.4141V0H41.7266ZM40.7656 22.4297L38.9375 22.4766C38.9375 20.6953 39.1562 19.0625 39.5938 17.5781C40.0469 16.0781 40.6875 14.7734 41.5156 13.6641C42.3438 12.5547 43.3359 11.6953 44.4922 11.0859C45.6641 10.4766 46.9531 10.1719 48.3594 10.1719C49.6094 10.1719 50.75 10.3516 51.7812 10.7109C52.8125 11.0703 53.7031 11.6406 54.4531 12.4219C55.2031 13.2031 55.7812 14.2266 56.1875 15.4922C56.5938 16.7578 56.7969 18.2969 56.7969 20.1094V36H49.4375V20.0625C49.4375 18.9844 49.2812 18.1406 48.9688 17.5312C48.6719 16.9219 48.2344 16.4922 47.6562 16.2422C47.0938 15.9922 46.4062 15.8672 45.5938 15.8672C44.6406 15.8672 43.8516 16.0391 43.2266 16.3828C42.6016 16.7109 42.1094 17.1719 41.75 17.7656C41.3906 18.3594 41.1328 19.0547 40.9766 19.8516C40.8359 20.6484 40.7656 21.5078 40.7656 22.4297ZM75.0078 29.9531V19.0781C75.0078 18.3125 74.8906 17.6562 74.6562 17.1094C74.4219 16.5625 74.0547 16.1328 73.5547 15.8203C73.0547 15.5078 72.4062 15.3516 71.6094 15.3516C70.9375 15.3516 70.3516 15.4688 69.8516 15.7031C69.3672 15.9375 68.9922 16.2734 68.7266 16.7109C68.4766 17.1484 68.3516 17.6875 68.3516 18.3281H61.0391C61.0391 17.1875 61.2969 16.125 61.8125 15.1406C62.3281 14.1562 63.0625 13.2891 64.0156 12.5391C64.9844 11.7891 66.1406 11.2109 67.4844 10.8047C68.8281 10.3828 70.3359 10.1719 72.0078 10.1719C73.9922 10.1719 75.7578 10.5078 77.3047 11.1797C78.8672 11.8359 80.1016 12.8281 81.0078 14.1562C81.9141 15.4688 82.3672 17.125 82.3672 19.125V29.7422C82.3672 31.2734 82.4531 32.4766 82.625 33.3516C82.8125 34.2109 83.0781 34.9609 83.4219 35.6016V36H76.0391C75.6953 35.2656 75.4375 34.3594 75.2656 33.2812C75.0938 32.1875 75.0078 31.0781 75.0078 29.9531ZM75.9219 20.5312L75.9688 24.5625H72.3359C71.5234 24.5625 70.8203 24.6641 70.2266 24.8672C69.6484 25.0703 69.1797 25.3516 68.8203 25.7109C68.4609 26.0547 68.1953 26.4609 68.0234 26.9297C67.8672 27.3828 67.7891 27.8828 67.7891 28.4297C67.7891 28.9453 67.9141 29.4141 68.1641 29.8359C68.4141 30.2422 68.7578 30.5625 69.1953 30.7969C69.6328 31.0312 70.1406 31.1484 70.7188 31.1484C71.6719 31.1484 72.4844 30.9609 73.1562 30.5859C73.8438 30.2109 74.375 29.7578 74.75 29.2266C75.125 28.6797 75.3125 28.1719 75.3125 27.7031L77.0703 30.75C76.7891 31.375 76.4453 32.0234 76.0391 32.6953C75.6328 33.3516 75.1172 33.9688 74.4922 34.5469C73.8672 35.1094 73.1094 35.5703 72.2188 35.9297C71.3438 36.2891 70.2891 36.4688 69.0547 36.4688C67.4609 36.4688 66.0156 36.1484 64.7188 35.5078C63.4219 34.8516 62.3828 33.9531 61.6016 32.8125C60.8359 31.6719 60.4531 30.3594 60.4531 28.875C60.4531 27.5469 60.6953 26.3672 61.1797 25.3359C61.6641 24.3047 62.3906 23.4297 63.3594 22.7109C64.3438 21.9922 65.5781 21.4531 67.0625 21.0938C68.5469 20.7188 70.2812 20.5312 72.2656 20.5312H75.9219ZM94.5078 16.5469V36H87.1953V10.6406H94.0625L94.5078 16.5469ZM102.078 10.4531L101.961 17.2734C101.648 17.2266 101.242 17.1875 100.742 17.1562C100.242 17.1094 99.8125 17.0859 99.4531 17.0859C98.5156 17.0859 97.7031 17.2031 97.0156 17.4375C96.3438 17.6562 95.7812 17.9844 95.3281 18.4219C94.8906 18.8594 94.5625 19.4062 94.3438 20.0625C94.125 20.7031 94.0156 21.4453 94.0156 22.2891L92.6328 21.6094C92.6328 19.9375 92.7969 18.4062 93.125 17.0156C93.4531 15.625 93.9297 14.4219 94.5547 13.4062C95.1797 12.375 95.9453 11.5781 96.8516 11.0156C97.7578 10.4531 98.7891 10.1719 99.9453 10.1719C100.32 10.1719 100.703 10.1953 101.094 10.2422C101.484 10.2891 101.812 10.3594 102.078 10.4531ZM117.758 29.9531V19.0781C117.758 18.3125 117.641 17.6562 117.406 17.1094C117.172 16.5625 116.805 16.1328 116.305 15.8203C115.805 15.5078 115.156 15.3516 114.359 15.3516C113.688 15.3516 113.102 15.4688 112.602 15.7031C112.117 15.9375 111.742 16.2734 111.477 16.7109C111.227 17.1484 111.102 17.6875 111.102 18.3281H103.789C103.789 17.1875 104.047 16.125 104.562 15.1406C105.078 14.1562 105.812 13.2891 106.766 12.5391C107.734 11.7891 108.891 11.2109 110.234 10.8047C111.578 10.3828 113.086 10.1719 114.758 10.1719C116.742 10.1719 118.508 10.5078 120.055 11.1797C121.617 11.8359 122.852 12.8281 123.758 14.1562C124.664 15.4688 125.117 17.125 125.117 19.125V29.7422C125.117 31.2734 125.203 32.4766 125.375 33.3516C125.562 34.2109 125.828 34.9609 126.172 35.6016V36H118.789C118.445 35.2656 118.188 34.3594 118.016 33.2812C117.844 32.1875 117.758 31.0781 117.758 29.9531ZM118.672 20.5312L118.719 24.5625H115.086C114.273 24.5625 113.57 24.6641 112.977 24.8672C112.398 25.0703 111.93 25.3516 111.57 25.7109C111.211 26.0547 110.945 26.4609 110.773 26.9297C110.617 27.3828 110.539 27.8828 110.539 28.4297C110.539 28.9453 110.664 29.4141 110.914 29.8359C111.164 30.2422 111.508 30.5625 111.945 30.7969C112.383 31.0312 112.891 31.1484 113.469 31.1484C114.422 31.1484 115.234 30.9609 115.906 30.5859C116.594 30.2109 117.125 29.7578 117.5 29.2266C117.875 28.6797 118.062 28.1719 118.062 27.7031L119.82 30.75C119.539 31.375 119.195 32.0234 118.789 32.6953C118.383 33.3516 117.867 33.9688 117.242 34.5469C116.617 35.1094 115.859 35.5703 114.969 35.9297C114.094 36.2891 113.039 36.4688 111.805 36.4688C110.211 36.4688 108.766 36.1484 107.469 35.5078C106.172 34.8516 105.133 33.9531 104.352 32.8125C103.586 31.6719 103.203 30.3594 103.203 28.875C103.203 27.5469 103.445 26.3672 103.93 25.3359C104.414 24.3047 105.141 23.4297 106.109 22.7109C107.094 21.9922 108.328 21.4531 109.812 21.0938C111.297 20.7188 113.031 20.5312 115.016 20.5312H118.672Z" fill="black"/>
</svg>
